<svg width="16" height="15" viewBox="0 0 16 15" fill="none" xmlns="http://www.w3.org/2000/svg">
<path d="M4.99489 9.3557C4.99425 9.14221 4.83271 8.91203 4.60747 8.84015L0.62432 7.61578C0.399768 7.5449 0.40519 7.44526 0.641383 7.39101L12.0465 4.34049C12.2542 4.27999 12.3398 4.3676 12.1969 4.55479L5.10029 13.7404C4.97337 13.9159 4.84684 13.8774 4.87574 13.6695L4.99489 9.3557Z" fill="black"/>
<path d="M4.62671 13.9932C4.56892 13.9108 4.5455 13.8066 4.5453 13.6646L4.69503 9.35573C4.69459 9.28424 4.60268 9.15328 4.5335 9.12556L0.539559 7.88366C0.22812 7.79633 0.0954311 7.57075 0.181676 7.3737C0.238825 7.24255 0.348838 7.14808 0.55549 7.08824L11.9596 4.03838C12.3045 3.96083 12.4663 4.1205 12.5122 4.18598C12.5582 4.25146 12.6512 4.45491 12.4442 4.72891L5.34757 13.9145C5.22721 14.0629 5.08869 14.1511 4.93894 14.1503C4.81734 14.1574 4.69634 14.0924 4.62671 13.9932ZM5.16728 8.88843C5.27102 9.03626 5.31155 9.20138 5.32358 9.36025L5.20226 13.104L11.6607 4.75273L1.3222 7.50435L4.72867 8.54904C4.89588 8.60907 5.05169 8.72374 5.16728 8.88843Z" fill="black"/>
</svg>
