<svg width="14" height="14" viewBox="0 0 14 14" fill="none" xmlns="http://www.w3.org/2000/svg">
<path d="M4.64158 0.245931C2.86473 0.880176 1.3961 2.20303 0.525804 3.90643C0.0362623 4.86686 0 5.08432 0 7.0233C0 8.96228 0.0362623 9.17973 0.525804 10.1402C1.21479 11.4993 2.41145 12.6953 3.78942 13.4201C4.84102 13.9819 4.98607 14 6.9805 14C8.97493 14 9.11998 13.9819 10.1535 13.4201C11.5496 12.6953 12.6556 11.5899 13.3808 10.1945C13.9429 9.16161 13.961 9.01664 13.961 7.0233C13.961 5.02995 13.9429 4.88498 13.3808 3.83395C12.6556 2.45673 11.4589 1.26072 10.0991 0.590235C9.21064 0.137202 8.81175 0.0647173 7.25247 0.0103531C5.92889 -0.0258894 5.22178 0.0284748 4.64158 0.245931ZM9.33755 1.69563C10.6611 2.31176 11.6221 3.25407 12.2567 4.57692C12.6918 5.48299 12.7825 5.89978 12.7825 7.0233C12.7825 8.14682 12.6918 8.56361 12.2567 9.46967C11.2232 11.6261 9.33755 12.8221 6.9805 12.8221C4.62345 12.8221 2.73781 11.6261 1.70433 9.46967C1.26918 8.56361 1.17853 8.14682 1.17853 7.0233C1.17853 4.66753 2.37518 2.78291 4.53279 1.75C6.01955 1.02515 7.86893 1.00702 9.33755 1.69563Z" fill="black"/>
<path d="M8.15903 4.84871C7.52444 5.48296 6.92611 5.93599 6.70853 5.93599C6.21899 5.93599 5.89263 6.26218 5.89263 6.75145C5.89263 7.34945 4.98607 8.11055 4.27896 8.11055C3.9526 8.11055 3.53558 8.20115 3.318 8.30988C2.95538 8.50922 2.95538 8.50922 3.3724 8.94413C3.58997 9.17971 3.97073 9.37904 4.20643 9.37904C4.51466 9.37904 4.62345 9.48777 4.62345 9.79583C4.62345 10.0314 4.80476 10.3938 5.04047 10.6113C5.5844 11.1187 5.89263 10.8469 5.89263 9.83207C5.89263 9.25219 6.00142 8.98037 6.4003 8.59982C6.67227 8.328 7.07116 8.11055 7.2706 8.11055C7.74201 8.11055 8.06837 7.78436 8.06837 7.31321C8.06837 7.09576 8.53978 6.46151 9.15624 5.84539L10.2441 4.73999L9.73644 4.25071L9.22877 3.76144L8.15903 4.84871Z" fill="black"/>
</svg>
